Coordinates
version=1
nRows=21
nColumns=33
inDegrees=yes

Units are S.I. units (second, meters, Newtons, ...)
Angles are in degrees.

endheader
time	ground_thorax_rot_x	ground_thorax_rot_y	ground_thorax_rot_z	ground_thorax_tx	ground_thorax_ty	ground_thorax_tz	clav_prot_r	clav_elev_r	scapula_abduction_r	scapula_elevation_r	scapula_upward_rot_r	scapula_winging_r	shoulder_elv_r	plane_of_elev_r	axial_rot_r	elbow_flexion_r	pro_sup_r	wrist_flex_r	wrist_dev_r	clav_prot_l	clav_elev_l	scapula_abduction_l	scapula_elevation_l	scapula_upward_rot_l	scapula_winging_l	shoulder_elv_l	plane_of_elev_l	axial_rot_l	elbow_flexion_l	pro_sup_l	wrist_flex_l	wrist_dev_l
      6.15000000	    -36.49203866	    -21.63189396	     25.38373921	    -19.54911850	    782.75856165	    -36.11934264	     24.13058275	    -45.00000000	     35.04720271	    -45.00000000	    -45.00000000	  -4053.27699669	  -1006.93722402	     20.03902138	   -153.25970245	   1800.29554038	   -190.99674150	     12.13783320	     15.19519789	      3.16000270	     27.90355927	    -27.30852547	    -45.00000000	    -45.00000000	  -2806.78881559	  -1346.35885141	     17.31525190	   -179.99999979	    361.88728667	   -174.80333249	     12.12455238	    -14.75375938
      6.16000000	    -37.03085582	    -20.67415891	     24.11298296	    -22.88696776	    784.61405836	    -36.53351663	     23.73735991	    -45.00000000	     34.58133771	    -45.00000000	    -45.00000000	  -4052.93418607	  -1006.64655429	     19.99630306	   -153.15338199	   1799.95143756	   -191.16404230	     12.33340829	     14.97922649	      4.55791315	     27.63842570	    -27.86616535	    -45.00000000	    -45.00000000	  -2807.09027573	  -1346.04666239	     16.81388192	   -179.99999979	    361.19352603	   -174.91333016	     11.71647718	    -14.96948967
      6.17000000	    -37.22522069	    -20.41130390	     23.68288528	    -26.25344172	    786.55491538	    -36.92896083	     24.05926339	    -45.00000000	     34.42055479	    -45.00000000	    -45.00000000	  -4053.25939326	  -1006.49026839	     20.31229562	   -153.26699417	   1799.97115600	   -191.29871762	     12.22665583	     15.32008207	      4.25849078	     27.75666409	    -27.65240785	    -45.00000000	    -45.00000000	  -2806.68550826	  -1345.67526587	     17.44494703	   -179.99999979	    361.30523462	   -174.82233167	     12.03856217	    -14.98665136
      6.18000000	    -37.05824909	    -20.80580478	     23.82881825	    -29.62480330	    788.56127640	    -37.30792228	     23.96101583	    -45.00000000	     35.00412253	    -45.00000000	    -45.00000000	  -4053.75496445	  -1006.58293012	     20.33844186	   -153.82432461	   1800.25118592	   -191.63741769	     12.14729983	     15.34652419	      3.06168359	     28.16928430	    -27.50700815	    -45.00000000	    -45.00000000	  -2806.19236786	  -1345.85305768	     17.53881596	   -179.99999979	    361.58685436	   -174.66857854	     12.15856672	    -15.21642509
      6.19000000	    -37.59486282	    -19.84254357	     22.54354303	    -32.99418458	    790.62721931	    -37.67186049	     23.48772230	    -45.00000000	     34.43366975	    -45.00000000	    -45.00000000	  -4053.49029330	  -1006.28819063	     20.45538779	   -153.77835723	   1799.90843248	   -191.86979527	     12.24191582	     15.38617643	      4.17779100	     28.00637688	    -28.00584270	    -45.00000000	    -45.00000000	  -2806.16125717	  -1345.50689317	     17.49540181	   -179.99999979	    361.15466825	   -174.74609579	     12.07429078	    -15.33021748
      6.20000000	    -37.69416426	    -19.73976363	     22.26652886	    -36.36208073	    792.75448745	    -38.02392664	     23.57410151	    -45.00000000	     34.48765249	    -45.00000000	    -45.00000000	  -4053.77665779	  -1006.17516264	     20.53316443	   -153.96436947	   1800.00947088	   -192.12805591	     12.21673877	     15.49069656	      3.66590682	     28.19104931	    -28.14202257	    -45.00000000	    -45.00000000	  -2805.60412979	  -1345.55162542	     17.83483075	   -179.99999979	    361.26148511	   -174.69488376	     12.37048367	    -15.45989174
      6.21000000	    -37.83662512	    -19.49876235	     21.74986960	    -39.72389923	    794.93916817	    -38.36613567	     23.42209119	    -45.00000000	     34.63827523	    -45.00000000	    -44.77759595	  -4054.04772847	  -1006.11889137	     20.65512062	   -154.18997988	   1800.07619330	   -192.44550621	     12.16765095	     15.52037910	      3.43173852	     28.36007199	    -28.14290728	    -45.00000000	    -45.00000000	  -2805.35779416	  -1345.36367829	     17.99238026	   -179.99999979	    361.26431940	   -174.63660188	     12.38109269	    -15.63984499
      6.22000000	    -38.24634093	    -18.34183652	     20.18826496	    -43.07234820	    797.17722452	    -38.70014738	     23.18265478	    -45.00000000	     34.76813207	    -45.00000000	    -43.35409303	  -4054.08936385	  -1006.04905517	     20.56807491	   -153.79702486	   1799.87453398	   -192.61189851	     12.24087984	     15.49873355	      4.15932094	     28.21318278	    -28.50351078	    -45.00000000	    -45.00000000	  -2805.56349486	  -1345.01977283	     17.97344189	   -179.99999979	    360.75597698	   -174.65719790	     12.17432219	    -15.85014367
      6.23000000	    -37.95203063	    -19.02638340	     20.77503200	    -46.40431279	    799.46941037	    -39.02914321	     23.56153813	    -45.00000000	     35.25425651	    -45.00000000	    -44.13059882	  -4054.64631088	  -1006.00188954	     20.66140597	   -154.42280419	   1800.07732820	   -193.10855203	     12.14505098	     15.49133294	      3.04835285	     28.45954239	    -28.15121285	    -45.00000000	    -45.00000000	  -2805.19548823	  -1345.06835530	     17.86272325	   -179.99999979	    361.04285453	   -174.53156216	     12.24583997	    -16.00411963
      6.24000000	    -38.68059619	    -16.07564225	     16.94398340	    -49.70825808	    801.81010046	    -39.35532258	     22.85611978	    -45.00000000	     36.56441924	    -45.00000000	    -37.96328032	  -4054.79312223	  -1006.44254909	     19.93930948	   -153.43101106	   1800.11727340	   -193.03472460	     12.30157737	     15.32423356	      3.93742307	     28.10560187	    -29.34009480	    -45.00000000	    -45.00000000	  -2806.08344704	  -1344.64855154	     17.85468473	   -179.99999979	    360.26606441	   -174.42649507	     11.61864545	    -16.45511694
      6.25000000	    -38.37770461	    -17.87449726	     19.14877821	    -52.98966181	    804.20540930	    -39.68385947	     23.44566547	    -45.00000000	     35.27242848	    -45.00000000	    -43.06709732	  -4054.91942602	  -1005.75706939	     20.72602555	   -154.46723384	   1800.05161579	   -193.82256331	     12.14832788	     15.48574285	      3.30706123	     28.48703634	    -28.67032051	    -45.00000000	    -45.00000000	  -2804.79453997	  -1344.79167178	     18.08827800	   -179.99999979	    360.83156369	   -174.93792861	     12.35036505	    -16.21655526
      6.26000000	    -38.52640049	    -17.40392219	     18.46413563	    -56.23034962	    806.64938072	    -40.01670126	     23.13808150	    -45.00000000	     35.37697028	    -45.00000000	    -42.54992076	  -4055.15226421	  -1005.66413435	     20.76597549	   -154.44751403	   1800.03782956	   -194.27312991	     12.14333373	     15.47610938	      3.26080818	     28.61029973	    -28.84774728	    -45.00000000	    -45.00000000	  -2804.57166517	  -1344.65195298	     18.20796318	   -179.99999979	    360.78062658	   -174.78924668	     12.32388724	    -16.42511320
      6.27000000	    -38.71142761	    -16.78521076	     17.67682092	    -59.42578176	    809.14166040	    -40.35771551	     22.97037418	    -45.00000000	     35.34515540	    -45.00000000	    -41.95265837	  -4055.30941202	  -1005.53309818	     20.80507960	   -154.33646469	   1800.02731951	   -194.69781500	     12.15098288	     15.43580252	      3.47117371	     28.64646903	    -29.07551900	    -45.00000000	    -45.00000000	  -2804.43845568	  -1344.44791991	     18.29126412	   -179.99999979	    360.69026507	   -174.84820257	     12.28943520	    -16.54675204
      6.28000000	    -38.81908194	    -16.35966796	     17.07263679	    -62.57225602	    811.68426902	    -40.71005039	     22.90533676	    -45.00000000	     35.40641781	    -45.00000000	    -41.55404895	  -4055.53583463	  -1005.40161796	     20.86187537	   -154.33071152	   1799.98824072	   -195.17898082	     12.16086771	     15.41087360	      3.50701010	     28.71182532	    -29.19828927	    -45.00000000	    -45.00000000	  -2804.22323688	  -1344.30646671	     18.37187821	   -179.99999979	    360.61241186	   -175.03691815	     12.28460166	    -16.67757104
      6.29000000	    -38.90276609	    -15.98746350	     16.53177397	    -65.66387394	    814.27659982	    -41.07580563	     22.84653652	    -45.00000000	     35.52111142	    -45.00000000	    -41.21266095	  -4055.76755267	  -1005.28676703	     20.90866336	   -154.38221534	   1799.96098296	   -195.70901912	     12.16732897	     15.38912663	      3.45659771	     28.78844878	    -29.31131072	    -45.00000000	    -45.00000000	  -2804.00103921	  -1344.19218676	     18.42601236	   -179.99999979	    360.58516313	   -175.29706451	     12.29221188	    -16.79676977
      6.30000000	    -39.00948490	    -15.53598288	     15.91723662	    -68.69578199	    816.91820409	    -41.45637313	     22.77306118	    -45.00000000	     35.58797761	    -45.00000000	    -40.85241757	  -4055.97545012	  -1005.17078931	     20.96904844	   -154.37738000	   1799.88090037	   -196.24409715	     12.17455341	     15.37034779	      3.57612217	     28.83701997	    -29.44938496	    -45.00000000	    -45.00000000	  -2803.83725972	  -1344.01539698	     18.45251243	   -179.99999979	    360.54633823	   -175.61276418	     12.26818411	    -16.87423070
      6.31000000	    -39.08728275	    -15.13328703	     15.35751900	    -71.66247093	    819.60710393	    -41.85194986	     22.72634870	    -45.00000000	     35.69742901	    -45.00000000	    -40.49679726	  -4056.19423486	  -1005.06362793	     21.02985103	   -154.45420120	   1799.83972820	   -196.82899203	     12.18416808	     15.34990282	      3.56351103	     28.90014835	    -29.57356539	    -45.00000000	    -45.00000000	  -2803.61785472	  -1343.89769644	     18.50717418	   -179.99999979	    360.52900115	   -175.94686470	     12.26922341	    -16.96864128
      6.32000000	    -39.17527594	    -14.66076516	     14.72584100	    -74.56128727	    822.34100412	    -42.26126058	     22.64699026	    -45.00000000	     35.79308790	    -45.00000000	    -40.06443191	  -4056.40065352	  -1004.96661832	     21.08566493	   -154.52466760	   1799.76481032	   -197.42495983	     12.18999263	     15.33568297	      3.65864272	     28.95555993	    -29.71511939	    -45.00000000	    -45.00000000	  -2803.45329081	  -1343.73127670	     18.52924289	   -179.99999979	    360.46703323	   -176.28324327	     12.23034269	    -17.05287369
      6.33000000	    -39.22478340	    -14.27833346	     14.22821708	    -77.38735439	    825.11233919	    -42.68017528	     22.60573150	    -45.00000000	     35.89141632	    -45.00000000	    -39.71224679	  -4056.62204571	  -1004.86937096	     21.14664522	   -154.68247471	   1799.75140889	   -198.08031253	     12.19422761	     15.30875756	      3.61239472	     29.03064089	    -29.82446415	    -45.00000000	    -45.00000000	  -2803.23279811	  -1343.61424671	     18.58199118	   -179.99999979	    360.45793323	   -176.57913313	     12.21516327	    -17.14549502
      6.34000000	    -39.31644330	    -13.73571670	     13.52795650	    -80.14157489	    827.91582472	    -43.10353052	     22.46392415	    -45.00000000	     36.02567028	    -45.00000000	    -39.14734816	  -4056.81939866	  -1004.81942974	     21.17644237	   -154.83780366	   1799.63246750	   -198.70096959	     12.19306521	     15.31785253	      3.76151529	     29.07623760	    -29.98006901	    -45.00000000	    -45.00000000	  -2803.11768354	  -1343.42247301	     18.55436263	   -179.99999979	    360.33464723	   -176.81920015	     12.11931960	    -17.24277061
      6.35000000	    -39.38550312	    -13.04919575	     12.72303487	    -82.82532312	    830.74612937	    -43.52466099	     22.27856629	    -45.00000000	     36.16173033	    -45.00000000	    -38.42196241	  -4057.00455150	  -1004.77423725	     21.24214031	   -155.07217980	   1799.61375571	   -199.28200231	     12.17421578	     15.31483365	      3.89411957	     29.15173475	    -30.13069190	    -45.00000000	    -45.00000000	  -2803.06380534	  -1343.19229247	     18.60217004	   -179.99999979	    360.20935816	   -176.98333754	     11.99074981	    -17.35149084
